<?xml version="1.0" standalone="no"?><!DOCTYPE svg PUBLIC "-//W3C//DTD SVG 1.1//EN" "http://www.w3.org/Graphics/SVG/1.1/DTD/svg11.dtd"><svg t="1717736868516" class="icon" viewBox="0 0 1024 1024" version="1.1" xmlns="http://www.w3.org/2000/svg" p-id="4305" xmlns:xlink="http://www.w3.org/1999/xlink" width="200" height="200"><path d="M682.666667 554.666667v21.333333c0 81.066667-68.266667 149.333333-149.333334 149.333333S384 657.066667 384 576V554.666667h42.666667v21.333333c0 59.733333 46.933333 106.666667 106.666666 106.666667s106.666667-46.933333 106.666667-106.666667V554.666667h42.666667zM213.333333 426.666667V213.333333h213.333334v42.666667H256v170.666667H213.333333z m0 213.333333h42.666667v170.666667h170.666667v42.666666H213.333333v-213.333333z m640-213.333333h-42.666666V256h-170.666667V213.333333h213.333333v213.333334z m0 213.333333v213.333333h-213.333333v-42.666666h170.666667v-170.666667h42.666666z m-384-256v85.333333h-42.666666V384h42.666666z m170.666667 0v85.333333h-42.666667V384h42.666667z" fill="#1296db" p-id="4306"></path></svg>